<?xml version="1.0" standalone="no"?>
<!DOCTYPE svg PUBLIC "-//W3C//DTD SVG 20010904//EN"
 "http://www.w3.org/TR/2001/REC-SVG-20010904/DTD/svg10.dtd">
<svg version="1.0" xmlns="http://www.w3.org/2000/svg"
 width="3000.000000pt" height="3000.000000pt" viewBox="0 0 3000.000000 3000.000000"
 preserveAspectRatio="xMidYMid meet">

<g transform="translate(0.000000,3000.000000) scale(0.100000,-0.100000)"
fill="#000000" stroke="none">
<path d="M16010 29209 c-123 -10 -273 -28 -330 -39 -25 -4 -72 -13 -105 -19
-111 -21 -294 -65 -385 -93 -161 -50 -450 -148 -505 -173 -16 -7 -75 -31 -130
-53 -97 -39 -240 -102 -398 -176 -42 -20 -79 -36 -82 -36 -2 0 -28 -11 -57
-24 -58 -26 -140 -60 -202 -82 -29 -10 -36 -11 -29 -1 6 6 20 39 33 72 31 84
32 230 2 298 -32 72 -98 164 -132 184 -16 9 -30 20 -30 24 0 7 -83 33 -137 44
-33 6 -121 -7 -178 -27 -117 -40 -192 -103 -236 -195 -27 -57 -32 -78 -31
-142 0 -85 30 -180 83 -262 25 -40 112 -112 159 -133 23 -10 -607 2 -707 13
-248 28 -363 34 -633 34 -342 -1 -501 -15 -775 -69 -204 -41 -284 -65 -517
-155 -95 -37 -397 -212 -428 -248 -3 -3 -34 -31 -70 -61 -179 -151 -272 -294
-274 -421 0 -57 4 -74 30 -115 67 -109 226 -174 423 -174 115 0 342 38 581 96
108 27 436 118 480 134 14 5 72 23 130 40 58 17 116 35 130 40 14 4 72 22 130
40 58 18 238 76 400 130 162 54 410 135 550 180 140 45 275 89 300 97 88 29
311 83 347 83 6 0 14 -23 18 -52 3 -29 10 -78 15 -108 5 -30 14 -89 20 -130 6
-41 15 -100 20 -130 5 -30 14 -89 20 -130 6 -41 14 -86 18 -100 7 -23 2 -28
-63 -61 -49 -25 -81 -51 -108 -85 -37 -47 -38 -52 -35 -115 l4 -66 -51 -13
c-109 -27 -449 -122 -535 -150 -30 -10 -89 -28 -130 -40 -115 -34 -149 -46
-225 -75 -38 -15 -117 -45 -175 -67 -92 -36 -431 -199 -530 -255 -159 -91
-451 -288 -511 -345 -8 -7 -39 -33 -69 -58 -50 -41 -136 -119 -229 -210 -43
-42 -133 -144 -203 -231 -245 -305 -399 -675 -469 -1124 -64 -409 -55 -786 32
-1425 5 -41 14 -100 19 -130 4 -30 14 -93 20 -140 7 -47 16 -107 21 -133 6
-31 5 -55 -1 -67 -5 -10 -10 -43 -10 -72 0 -45 5 -59 31 -91 l32 -38 -40 -42
c-66 -69 -81 -88 -132 -162 -47 -68 -98 -160 -140 -256 -47 -107 -111 -337
-111 -399 l0 -32 -77 69 c-43 37 -84 74 -92 81 -76 72 -305 231 -431 300 -133
73 -320 121 -466 122 -70 0 -232 -23 -319 -45 -186 -48 -459 -192 -640 -338
-65 -52 -280 -267 -332 -332 -106 -132 -239 -366 -297 -520 -52 -143 -67 -185
-82 -240 -129 -475 -147 -910 -55 -1360 12 -55 25 -117 31 -137 5 -21 14 -53
19 -70 44 -165 142 -351 264 -503 50 -62 225 -237 292 -292 28 -22 100 -77
160 -122 61 -44 115 -84 120 -89 6 -4 44 -31 85 -60 41 -28 116 -80 165 -116
76 -54 229 -151 325 -205 14 -7 115 -59 225 -115 178 -90 247 -123 349 -165
l28 -12 -26 -32 c-132 -164 -226 -312 -310 -487 -72 -153 -96 -224 -147 -450
-7 -30 -13 -118 -13 -195 -1 -197 23 -275 85 -275 34 0 59 40 59 94 0 141 123
379 288 555 18 20 29 27 24 16 -38 -79 -113 -353 -136 -497 -34 -217 -44 -648
-17 -721 5 -14 19 -28 31 -32 37 -12 66 18 89 92 49 155 126 318 184 393 l20
25 -7 -35 c-31 -151 -26 -442 10 -618 5 -23 4 -23 -48 6 -29 17 -197 102 -373
190 -303 152 -382 196 -585 322 -259 161 -325 197 -694 385 -155 78 -330 170
-391 204 -60 35 -180 101 -265 148 -232 129 -570 332 -706 425 -67 46 -170
116 -228 156 -164 112 -273 161 -359 162 -41 0 -92 -27 -106 -56 -13 -30 -15
-159 -2 -200 5 -16 14 -49 21 -74 19 -70 30 -98 75 -196 23 -49 59 -130 80
-180 161 -373 461 -767 874 -1147 46 -42 82 -77 79 -77 -3 0 -18 6 -34 14 -16
8 -85 37 -154 66 -69 29 -208 87 -310 130 -102 43 -261 109 -355 145 -93 37
-189 76 -212 86 -24 10 -49 19 -56 19 -7 0 -17 4 -23 9 -5 5 -29 16 -54 24
-25 8 -120 45 -210 80 -250 99 -626 245 -710 277 -41 15 -118 45 -170 65 -52
20 -126 48 -165 62 -38 13 -79 28 -90 33 -11 5 -69 27 -130 49 -60 22 -155 56
-210 76 -55 20 -143 52 -195 72 -130 47 -187 68 -240 88 -25 9 -70 25 -100 35
-30 10 -73 25 -95 33 -22 9 -130 48 -240 87 -110 39 -218 78 -240 87 -22 8
-65 23 -95 33 -30 10 -75 26 -100 35 -57 21 -116 43 -255 94 -253 91 -448 165
-560 211 -50 20 -209 81 -300 115 -118 43 -252 93 -280 105 -35 15 -207 78
-285 103 -302 101 -468 127 -569 88 -82 -31 -101 -60 -101 -154 0 -169 176
-434 509 -768 351 -350 713 -574 1641 -1012 157 -74 395 -183 530 -242 135
-59 405 -180 600 -268 370 -166 710 -313 842 -362 42 -16 75 -32 73 -36 -3 -3
-18 -9 -35 -13 -39 -7 -80 -51 -80 -86 0 -15 10 -40 22 -55 27 -34 232 -135
663 -325 581 -256 1232 -562 1325 -621 53 -34 59 -43 156 -225 187 -349 277
-536 257 -530 -198 60 -607 145 -983 206 -308 50 -964 158 -1085 179 -636 112
-1165 194 -2010 311 -491 68 -1169 136 -1460 148 -224 9 -378 1 -422 -21 -36
-19 -63 -62 -63 -100 0 -54 94 -243 177 -355 243 -328 588 -616 889 -740 72
-30 221 -68 374 -96 47 -9 234 -43 415 -76 829 -152 2658 -531 2684 -556 2 -2
-3 -12 -12 -21 -54 -60 -37 -118 44 -153 29 -12 136 -39 238 -60 224 -45 438
-106 712 -201 275 -95 427 -145 664 -219 249 -78 366 -124 395 -156 13 -13 22
-26 19 -28 -2 -2 -60 -10 -129 -16 -467 -43 -1029 -126 -1725 -254 -165 -30
-394 -71 -510 -91 -796 -137 -1811 -374 -2078 -485 -188 -78 -238 -155 -165
-251 63 -80 200 -146 523 -249 318 -102 533 -148 810 -172 187 -16 1400 -16
1835 0 511 20 499 20 513 -9 30 -60 64 -62 612 -36 558 25 955 39 1015 36 l55
-4 -70 -29 c-63 -27 -186 -84 -850 -398 -115 -55 -345 -163 -510 -240 -579
-271 -1454 -720 -1885 -968 -36 -21 -139 -79 -230 -130 -91 -51 -244 -139
-340 -195 -96 -56 -206 -119 -245 -140 -95 -52 -230 -141 -271 -180 -27 -25
-34 -40 -34 -69 0 -30 5 -40 33 -56 83 -51 232 -69 592 -71 212 -1 252 1 345
20 161 34 263 65 478 145 368 137 989 325 1672 505 671 177 650 172 673 150
31 -28 76 -24 221 21 72 22 131 38 133 36 5 -5 -127 -121 -237 -207 -265 -209
-359 -285 -510 -415 -167 -143 -322 -281 -505 -449 -55 -50 -152 -138 -215
-195 -124 -112 -223 -203 -535 -491 -110 -101 -279 -255 -375 -341 -271 -243
-350 -322 -350 -350 0 -35 28 -56 102 -79 185 -58 425 -43 658 42 112 41 500
252 941 511 336 198 859 477 859 459 0 -6 -20 -104 -45 -218 -117 -536 -287
-1135 -437 -1543 -183 -498 -315 -844 -368 -965 -10 -22 -29 -67 -43 -100 -13
-33 -66 -158 -115 -278 -50 -119 -98 -236 -106 -260 -8 -23 -33 -89 -56 -147
-55 -139 -113 -314 -147 -447 -21 -85 -27 -132 -27 -218 0 -102 2 -114 29
-168 35 -71 96 -134 205 -212 45 -33 139 -102 209 -153 272 -200 527 -375 686
-471 82 -50 394 -207 477 -240 l58 -23 -8 -77 c-10 -104 -9 -610 1 -693 l9
-68 1747 0 1747 0 13 48 c8 26 22 72 31 102 31 100 59 194 76 258 18 66 24 72
89 88 22 5 24 2 30 -43 6 -45 36 -194 55 -273 4 -19 14 -68 21 -107 l12 -73
59 0 c32 0 58 3 58 6 0 12 -49 249 -73 354 -14 58 -28 124 -31 147 -6 42 -6
42 36 61 55 24 161 109 183 145 14 23 16 51 14 155 -5 232 12 1594 22 1822
l10 225 95 125 c52 69 114 166 139 215 111 226 165 484 165 793 0 143 -7 192
-30 192 -19 0 -40 -92 -55 -240 -30 -291 -75 -478 -161 -659 -38 -82 -131
-228 -139 -219 -1 2 1 67 6 146 5 78 13 206 18 285 5 78 7 144 6 145 -12 13
-133 -473 -144 -577 -19 -165 -31 -571 -36 -1171 -3 -333 -8 -736 -11 -896
l-7 -291 -61 -41 c-34 -23 -89 -53 -124 -67 -146 -59 -452 -121 -722 -146
-167 -15 -645 -7 -905 16 -305 26 -957 124 -1279 191 -574 120 -1050 317
-1511 626 -218 146 -263 178 -480 338 -71 53 -167 122 -213 155 -183 130 -208
194 -162 415 39 183 208 643 420 1140 84 197 194 482 342 885 179 490 289 849
422 1380 121 481 177 774 236 1230 48 373 71 500 127 695 108 380 268 686 471
902 25 26 51 56 59 68 21 30 215 203 302 269 189 144 404 273 707 424 307 153
575 241 994 327 404 82 578 119 680 143 131 32 815 173 930 192 47 8 124 15
171 15 l85 0 13 -50 c13 -49 58 -110 81 -110 8 0 10 8 6 23 -17 59 -19 146 -3
170 31 47 179 78 275 57 51 -12 61 -18 79 -49 90 -156 373 -450 685 -710 87
-72 227 -183 463 -365 631 -489 1255 -838 1880 -1052 424 -146 901 -198 1285
-139 130 20 311 79 449 147 332 163 552 397 736 781 110 229 140 359 140 612
0 187 -11 257 -41 269 -9 3 -47 9 -85 12 -40 4 -66 11 -61 16 15 15 183 68
253 80 52 9 80 9 120 0 134 -31 194 -140 219 -399 6 -65 14 -129 17 -143 l6
-25 8 30 c25 83 21 232 -7 367 l-6 27 63 -20 c104 -33 336 -68 619 -94 386
-36 828 -119 1015 -191 303 -117 476 -268 698 -609 66 -101 168 -297 208 -396
95 -241 136 -382 290 -994 71 -280 160 -631 198 -780 106 -410 199 -846 347
-1625 97 -510 161 -810 234 -1095 165 -649 242 -885 405 -1255 188 -425 234
-548 254 -676 9 -58 8 -82 -5 -130 -63 -244 -425 -469 -1069 -664 -469 -142
-1044 -265 -1354 -290 -73 -6 -136 -9 -138 -6 -3 2 5 123 16 268 61 788 68
963 82 1888 12 819 0 1740 -25 2025 l-14 150 44 110 c148 375 241 910 260
1505 9 285 -16 425 -76 425 -21 0 -24 -4 -22 -25 33 -270 4 -768 -69 -1190
-27 -157 -150 -653 -159 -643 -4 4 -13 44 -19 88 -7 44 -21 141 -32 215 -34
228 -48 358 -55 507 -7 138 -8 144 -28 141 -39 -6 -49 -49 -48 -222 0 -167 6
-236 47 -541 31 -228 56 -454 55 -503 0 -20 4 -89 9 -152 13 -155 13 -2023 1
-2441 -16 -535 -33 -852 -85 -1514 -13 -170 -29 -391 -35 -490 -6 -99 -12
-195 -15 -213 l-4 -32 996 0 995 0 -6 93 c-13 183 -67 710 -79 770 -1 5 16 15
38 24 271 103 390 157 534 243 148 87 287 226 347 347 38 76 39 81 39 183 0
82 -5 120 -23 175 -30 91 -77 215 -111 290 -15 33 -36 80 -47 105 -10 25 -67
142 -125 260 -58 118 -118 256 -133 305 -15 50 -32 104 -37 120 -19 62 -48
174 -73 278 -52 214 -114 476 -126 532 -5 22 -13 60 -19 85 -33 141 -110 535
-181 930 -6 30 -36 188 -66 350 -31 162 -60 313 -64 335 -11 63 -59 295 -70
343 -5 23 -14 61 -20 85 -42 185 -60 262 -116 482 -34 138 -72 284 -83 325
-11 41 -29 109 -41 150 -11 41 -45 176 -75 300 -71 288 -116 461 -166 632 -21
75 -39 138 -39 141 0 5 319 -137 405 -180 33 -17 134 -74 225 -127 226 -133
473 -256 512 -256 17 0 45 9 63 20 l33 20 308 -168 c170 -93 415 -224 544
-292 627 -328 807 -426 1140 -622 211 -123 705 -397 775 -429 197 -89 473
-132 637 -98 92 18 178 50 188 69 28 53 20 62 -285 338 -275 248 -338 306
-480 437 -173 160 -355 327 -415 381 -25 22 -126 114 -225 205 -474 432 -627
563 -925 799 -254 200 -274 216 -333 270 -32 29 -56 54 -55 56 2 2 60 -15 128
-37 146 -47 199 -52 229 -25 21 19 23 19 114 -3 146 -36 987 -257 1105 -292
452 -131 902 -274 1145 -365 223 -83 327 -113 501 -145 116 -21 128 -22 420
-11 304 12 389 22 459 59 58 29 70 63 41 108 -20 30 -122 106 -219 162 -1185
687 -1920 1078 -2806 1491 -118 55 -362 171 -544 257 -181 86 -427 201 -545
256 -118 55 -237 111 -265 125 l-50 24 160 -5 c356 -11 747 -26 1054 -41 178
-8 348 -12 379 -8 53 6 92 30 103 62 3 10 77 10 339 1 184 -6 643 -13 1020
-16 1130 -9 1261 7 1965 242 190 63 340 155 366 223 34 89 -19 151 -190 222
-259 106 -1277 344 -2041 476 -113 19 -401 71 -640 114 -519 94 -764 133
-1085 175 -209 28 -548 65 -595 65 -89 1 -93 36 -8 75 29 14 152 57 273 96
261 84 523 171 808 268 240 82 445 139 602 170 239 47 286 62 333 104 29 26
28 55 -3 100 -13 20 -21 38 -17 41 25 15 639 147 1427 307 833 169 1030 207
1625 314 238 42 367 78 481 134 170 82 169 81 169 146 0 30 -2 55 -4 55 -2 0
-36 -20 -76 -44 -150 -93 -297 -145 -520 -185 -644 -116 -857 -156 -1105 -207
-121 -25 -411 -83 -645 -130 -234 -47 -497 -100 -585 -119 -417 -90 -621 -136
-743 -165 l-134 -32 -98 68 c-324 226 -416 264 -605 249 -49 -4 -133 -15 -185
-26 -111 -22 -677 -162 -865 -213 -71 -20 -136 -36 -142 -36 -8 0 2 21 22 48
52 72 115 188 230 429 141 291 218 442 227 437 4 -3 98 16 210 40 241 53 564
111 894 161 132 20 588 94 1014 165 899 150 1026 170 1565 245 628 88 1073
143 1330 165 66 5 141 12 168 16 l47 6 0 45 0 44 -52 -5 c-29 -3 -105 -11
-168 -16 -307 -29 -604 -64 -1080 -130 -623 -86 -1099 -159 -1597 -245 -300
-52 -917 -155 -1283 -215 -306 -49 -753 -138 -904 -180 -61 -16 -112 -28 -114
-26 -4 5 249 503 320 631 36 65 55 87 101 118 31 21 211 112 399 201 350 166
500 235 968 441 388 172 606 279 626 310 35 54 10 116 -56 136 -22 7 -40 15
-40 19 0 3 17 12 38 19 95 34 483 200 847 363 220 99 445 199 500 223 425 183
1030 470 1363 647 l132 71 0 58 0 58 -72 -40 c-234 -129 -871 -437 -1293 -624
-115 -51 -271 -120 -345 -153 -74 -33 -270 -120 -435 -195 -423 -190 -867
-380 -887 -379 -17 1 -220 70 -343 117 -49 19 -79 25 -102 20 -95 -18 -1175
-456 -1711 -694 -210 -93 -279 -122 -377 -158 -38 -14 -81 -33 -94 -41 -13 -9
-96 -106 -185 -217 -88 -110 -214 -263 -280 -340 -65 -77 -162 -192 -216 -255
-174 -206 -436 -485 -444 -472 -2 4 -7 25 -11 47 -6 36 -47 183 -61 220 -5 12
3 13 43 9 61 -7 163 9 217 35 103 51 178 138 216 252 19 53 21 80 18 159 -7
142 -55 234 -156 298 -208 132 -498 44 -618 -188 -25 -50 -31 -182 -11 -251 9
-29 15 -55 13 -56 -4 -4 -645 153 -680 166 -18 7 -10 14 54 46 134 67 457 256
577 337 40 26 77 58 84 69 6 11 15 63 20 114 9 106 16 139 34 175 37 72 139
147 327 239 936 457 1025 504 1221 644 49 34 90 54 140 67 40 10 263 96 497
190 234 95 533 214 665 265 132 51 386 150 565 220 409 160 752 290 1085 412
143 52 328 120 410 150 83 30 256 92 385 138 266 94 350 124 930 334 228 83
505 186 615 229 l200 79 3 53 c3 47 1 52 -15 45 -10 -4 -52 -20 -93 -35 -41
-15 -133 -51 -205 -80 -71 -29 -141 -56 -155 -60 -14 -5 -99 -36 -190 -70 -91
-34 -227 -84 -302 -111 -376 -134 -584 -208 -693 -248 -33 -12 -85 -31 -115
-41 -55 -18 -127 -44 -165 -60 -11 -5 -54 -21 -95 -35 -128 -46 -281 -102
-370 -135 -47 -17 -96 -35 -110 -40 -23 -8 -93 -34 -270 -100 -124 -47 -236
-88 -317 -119 -126 -46 -265 -101 -311 -122 -23 -10 -47 -19 -52 -19 -6 0 -29
-9 -53 -19 -23 -10 -125 -51 -227 -91 -330 -128 -893 -353 -958 -382 -34 -15
-65 -28 -67 -28 -3 0 -27 -10 -53 -21 -58 -26 -76 -34 -232 -99 -69 -29 -137
-58 -152 -65 -16 -7 68 81 185 196 116 115 232 234 257 265 25 30 52 63 60 72
97 110 276 375 349 518 49 96 111 230 111 239 0 3 18 44 41 92 62 133 70 157
109 308 27 106 2 190 -65 222 -31 15 -43 15 -98 4 -82 -17 -195 -73 -317 -159
-213 -150 -306 -212 -400 -270 -243 -149 -341 -206 -475 -278 -49 -26 -102
-56 -117 -66 -14 -10 -29 -18 -32 -18 -4 0 -36 -18 -72 -40 -36 -22 -67 -40
-69 -40 -1 0 -35 -19 -76 -41 -41 -23 -200 -106 -355 -184 -273 -139 -409
-210 -429 -225 -5 -5 -26 -17 -45 -28 -19 -10 -73 -43 -120 -72 -253 -157
-403 -241 -665 -372 -159 -80 -321 -162 -359 -182 l-68 -36 6 42 c20 149 17
303 -10 478 l-5 35 34 -39 c33 -37 73 -108 97 -173 15 -40 45 -67 65 -59 38
14 85 192 85 319 0 152 -59 364 -156 562 -145 295 -294 518 -488 730 -25 28
-45 53 -46 57 0 3 15 10 33 13 81 18 147 44 282 112 78 40 233 137 283 178 10
8 55 44 102 81 120 96 352 328 435 435 39 50 75 96 81 102 22 25 133 196 181
282 212 372 321 797 363 1415 21 304 1 766 -41 945 -42 181 -125 374 -201 470
-94 118 -243 234 -367 284 -109 45 -181 56 -356 55 -142 0 -171 -4 -260 -28
-119 -33 -245 -85 -337 -139 -341 -203 -658 -579 -888 -1052 -136 -281 -174
-370 -246 -593 -15 -45 -29 -81 -31 -78 -11 10 53 357 107 581 39 164 75 344
99 500 12 72 30 171 41 220 28 125 36 264 20 377 -7 51 -17 104 -21 117 -5 13
-7 26 -5 29 3 3 67 -26 143 -65 189 -95 224 -105 373 -111 134 -5 215 8 262
40 14 10 33 18 42 18 45 0 153 99 181 166 44 105 2 263 -119 444 -136 206
-439 525 -796 840 -47 41 -87 78 -90 81 -3 3 -75 63 -160 133 -85 71 -166 138
-180 150 -14 11 -45 37 -70 56 -25 19 -54 43 -65 53 -11 10 -61 48 -112 85
-51 37 -92 72 -93 79 0 17 -49 53 -72 53 -11 0 -47 21 -80 48 -64 50 -129 90
-190 119 -39 18 -43 26 -53 108 -9 75 -25 171 -42 255 -9 41 -18 86 -20 100
-20 99 -70 267 -121 405 -74 201 -115 288 -232 500 -31 56 -174 275 -205 313
-162 203 -337 388 -450 477 -27 22 -52 43 -55 46 -3 4 -61 47 -131 97 -149
107 -188 132 -404 247 -149 80 -186 99 -270 134 -44 18 -93 39 -110 46 -16 7
-55 22 -85 33 -30 11 -86 32 -125 46 -143 51 -459 136 -620 166 -22 4 -71 14
-110 23 -38 8 -101 20 -140 26 -263 41 -329 51 -405 60 -47 6 -106 11 -132 11
-25 0 -68 4 -95 10 -151 29 -816 52 -1158 39 -278 -10 -666 -35 -701 -45 -18
-5 -22 0 -29 32 -17 95 -135 189 -252 202 -34 4 -44 9 -48 26 -17 84 -38 172
-56 236 -47 172 -99 386 -95 396 7 18 218 63 431 93 194 27 988 51 1735 51
613 1 912 41 1121 152 103 54 179 153 179 231 0 148 -172 344 -392 446 -115
54 -266 96 -433 121 -76 11 -313 31 -348 29 -12 -1 -65 -5 -117 -10z m483
-123 c251 -47 399 -105 513 -201 123 -104 174 -177 174 -249 0 -37 -6 -50 -34
-77 -53 -54 -193 -117 -311 -140 -217 -44 -485 -59 -1060 -59 -1065 0 -1517
-29 -1885 -120 -103 -26 -97 -27 -110 27 -6 26 -14 58 -17 70 -8 34 30 79 74
88 50 9 191 66 483 195 642 284 1087 419 1580 479 115 15 489 6 593 -13z
m-2933 -155 c45 -24 101 -101 107 -149 10 -73 -63 -120 -114 -73 -11 11 -30
35 -42 55 -21 33 -26 36 -72 36 -57 0 -89 24 -89 68 0 54 40 81 120 82 35 0
68 -7 90 -19z m-1097 -632 c323 -26 839 -32 896 -11 19 6 36 10 39 8 2 -3 6
-40 9 -84 l6 -80 -49 -7 c-70 -10 -246 -53 -329 -80 -38 -12 -158 -51 -265
-85 -107 -35 -301 -98 -430 -140 -129 -43 -309 -101 -400 -130 -91 -28 -190
-60 -220 -70 -30 -10 -95 -31 -145 -45 -85 -25 -120 -36 -282 -86 -38 -11 -81
-24 -98 -29 -16 -5 -57 -16 -90 -25 -169 -47 -285 -75 -390 -94 -181 -34 -239
-41 -362 -43 -123 -1 -144 1 -198 22 -81 31 -135 87 -135 139 0 167 290 443
643 611 267 127 607 212 961 239 206 16 558 12 839 -10z m1197 -74 c30 -37 91
-407 62 -380 -29 27 -102 276 -102 349 0 47 16 60 40 31z m127 -525 c15 -31
17 -106 2 -115 -29 -19 -73 84 -55 131 8 22 38 13 53 -16z m1745 -590 c336
-11 458 -20 848 -61 85 -9 217 -29 410 -60 174 -29 431 -87 620 -141 367 -104
687 -245 1015 -447 105 -65 335 -237 418 -313 63 -59 64 -60 135 -313 122
-436 141 -611 91 -840 -28 -127 -126 -278 -226 -347 -49 -33 -64 -34 -228 -9
-162 25 -221 33 -462 61 -96 11 -252 25 -463 41 -74 6 -336 13 -582 16 -247 3
-448 7 -448 8 0 5 -51 201 -85 329 -27 103 -121 389 -175 536 -17 47 -38 105
-47 129 -21 61 -87 210 -130 296 -216 427 -425 662 -820 923 -117 77 -313 180
-350 184 -21 2 92 14 152 16 22 1 169 -3 327 -8z m-580 -26 c113 -36 229 -96
379 -196 336 -224 549 -437 710 -709 152 -255 250 -488 397 -939 46 -141 192
-685 192 -715 0 -3 -44 -5 -97 -5 -260 -1 -834 -58 -1203 -121 -678 -115
-1231 -268 -1819 -501 -304 -121 -841 -391 -978 -492 -47 -34 -171 -86 -206
-86 -4 0 -7 18 -7 40 0 21 -4 72 -9 112 -6 40 -15 134 -21 208 -6 74 -20 223
-30 330 -35 365 -43 525 -44 880 0 362 5 452 45 695 26 161 83 389 126 505 95
258 259 481 467 639 114 86 124 90 318 141 273 71 479 112 798 160 174 27 427
51 760 73 115 8 143 6 222 -19z m-2287 -446 c-182 -184 -279 -340 -358 -579
-164 -492 -202 -1018 -137 -1884 6 -77 13 -152 15 -167 l5 -28 -118 0 c-194 0
-399 33 -556 89 -150 53 -308 175 -369 286 -61 108 -72 164 -71 350 1 191 13
256 86 470 98 292 351 722 626 1065 139 174 165 198 266 246 137 65 332 140
516 200 151 49 214 70 216 73 0 1 -54 -54 -121 -121z m4850 -2233 c508 -27
742 -54 1250 -145 86 -15 357 -70 420 -85 388 -91 427 -105 574 -199 36 -24
104 -67 151 -97 172 -109 302 -206 495 -373 66 -57 147 -128 155 -136 3 -3 55
-46 115 -95 172 -140 473 -417 580 -534 41 -44 141 -155 207 -228 55 -61 134
-186 157 -249 29 -75 28 -157 -1 -184 -44 -41 -112 -18 -328 114 -80 49 -170
102 -200 119 -30 17 -73 42 -95 57 -22 14 -56 33 -75 42 -105 47 -130 58 -185
78 -89 32 -262 87 -330 105 -468 126 -687 151 -1195 142 -284 -6 -403 -12
-655 -36 -55 -6 -149 -14 -210 -20 -229 -20 -576 -80 -760 -130 -222 -61 -455
-162 -758 -330 -29 -16 -83 -46 -122 -67 -38 -20 -92 -51 -119 -66 -27 -16
-102 -55 -168 -87 l-119 -59 -62 23 c-89 33 -214 83 -275 111 -29 13 -55 24
-57 24 -7 0 -108 47 -300 140 -93 45 -204 98 -245 117 -145 69 -516 253 -595
295 -44 24 -120 66 -170 92 -514 276 -735 436 -909 661 -65 85 -98 144 -115
210 -12 46 -14 175 -3 191 17 26 439 176 682 244 19 5 67 18 105 29 68 19 148
41 298 80 63 17 153 37 317 72 256 54 547 99 900 139 94 10 326 27 525 39 242
14 831 12 1120 -4z m2370 -378 l120 -33 185 -139 c614 -461 1244 -1031 1515
-1370 154 -192 225 -334 225 -448 0 -75 -27 -113 -110 -154 -79 -38 -141 -53
-223 -53 -143 0 -238 31 -430 142 -437 251 -789 372 -1317 452 -303 46 -379
51 -750 50 -446 -1 -688 -25 -1065 -106 -400 -85 -629 -171 -1185 -443 -442
-216 -559 -262 -795 -316 -114 -27 -433 -37 -569 -20 -222 29 -473 89 -711
170 -366 125 -561 233 -980 542 -93 69 -251 181 -350 249 -196 134 -312 220
-507 375 -69 55 -182 144 -250 198 -143 113 -188 153 -188 167 0 12 82 66 169
109 l63 33 28 -34 c82 -99 327 -320 555 -498 228 -180 678 -485 1000 -677 445
-267 748 -396 1025 -439 25 -4 77 -20 117 -36 60 -23 86 -28 162 -28 125 0
269 23 444 70 228 62 329 108 708 317 474 263 672 345 999 413 80 17 168 38
195 46 126 37 400 75 610 84 739 31 844 33 1017 21 378 -25 746 -107 1148
-253 172 -63 276 -116 519 -262 193 -116 234 -137 296 -143 97 -10 145 38 145
146 0 97 -57 221 -163 359 -75 99 -628 645 -766 758 -74 60 -186 153 -250 208
-228 194 -428 349 -546 423 -66 42 -147 93 -180 114 -33 21 -53 39 -45 39 8 0
69 -15 135 -33z m-380 -1678 c72 -6 173 -17 225 -25 52 -8 145 -21 205 -30
237 -33 551 -118 747 -202 104 -45 114 -51 124 -83 44 -133 66 -477 45 -706
-15 -154 -48 -341 -101 -563 -82 -345 -126 -603 -133 -778 l-2 -63 -55 76
c-135 190 -365 357 -599 435 -201 68 -551 99 -736 66 -215 -37 -366 -139 -445
-299 -64 -132 -104 -384 -65 -417 17 -14 31 -7 64 33 50 59 368 269 484 320
247 106 517 126 783 56 200 -52 386 -156 501 -279 l70 -75 17 -135 c19 -159
85 -491 119 -605 14 -44 50 -163 81 -264 38 -124 60 -215 67 -280 29 -274 75
-463 179 -731 82 -213 255 -747 245 -758 -1 -2 -28 9 -60 22 -145 65 -315 104
-371 86 -53 -18 -55 -49 -6 -113 39 -51 202 -286 202 -291 0 -1 -34 14 -75 35
-181 88 -333 114 -350 59 -8 -25 19 -73 135 -240 83 -119 187 -296 178 -305
-2 -2 -33 16 -68 41 -116 81 -178 102 -208 72 -22 -22 -12 -54 45 -149 88
-145 202 -401 187 -418 -1 -2 -78 36 -169 83 -92 47 -175 86 -185 86 -10 0
-22 -10 -25 -21 -6 -17 4 -32 48 -73 45 -41 187 -230 187 -248 0 -3 -27 2 -60
11 -100 26 -127 -14 -67 -97 70 -96 117 -215 136 -347 17 -109 41 -568 41
-759 0 -353 -76 -800 -189 -1114 -116 -322 -202 -518 -302 -689 -206 -350
-380 -542 -748 -824 -207 -158 -553 -327 -796 -388 -227 -56 -453 -81 -742
-82 -391 0 -689 54 -1173 214 -399 132 -489 171 -1175 502 -290 140 -420 248
-667 556 -216 270 -442 665 -565 989 -254 669 -305 1204 -168 1743 31 124 75
224 153 354 65 107 72 131 46 157 -21 22 -25 21 -123 -21 -86 -36 -107 -47
-210 -105 l-53 -31 57 77 c31 42 68 99 82 126 25 48 25 50 8 76 -15 24 -22 26
-59 21 -35 -5 -170 -44 -224 -65 -30 -11 0 19 118 118 121 102 145 135 120
165 -22 27 -123 13 -375 -50 -11 -3 51 31 139 74 87 44 167 88 177 97 23 21
25 57 3 75 -32 26 -362 -24 -725 -112 -136 -32 -251 -59 -255 -59 -5 0 24 18
64 39 89 48 112 67 112 96 0 28 -6 33 -103 84 -73 39 -187 110 -187 117 0 1
36 1 79 -1 l80 -4 -25 24 c-14 14 -39 32 -56 41 -75 39 -467 327 -578 425
-274 243 -401 411 -498 659 -49 126 -82 327 -82 505 0 104 22 363 40 475 63
388 331 1023 663 1575 82 136 417 638 507 761 168 228 390 492 544 646 117
118 273 258 288 258 5 0 35 -17 66 -39 251 -170 782 -364 1207 -440 332 -59
601 -52 882 25 162 43 330 113 658 271 176 85 332 159 347 165 24 8 45 1 160
-56 338 -165 505 -165 840 0 232 115 495 257 623 339 102 64 191 109 230 115
53 8 287 3 450 -11z m-10430 -434 c89 -24 211 -88 359 -186 165 -109 289 -214
476 -398 221 -219 326 -361 540 -726 52 -88 147 -250 213 -360 208 -351 417
-806 512 -1120 53 -175 171 -624 195 -740 40 -195 70 -400 70 -481 0 -203 -72
-464 -156 -563 -55 -66 -203 -126 -384 -156 -179 -30 -516 -14 -825 40 -357
62 -798 211 -1165 394 -321 160 -397 205 -693 413 -400 281 -530 390 -666 558
-160 199 -241 379 -301 675 -150 730 52 1619 471 2070 20 22 50 56 65 74 43
52 233 211 332 279 170 116 372 203 551 237 98 19 322 13 406 -10z m13609 -60
c132 -23 215 -63 334 -159 150 -120 266 -348 307 -599 41 -253 44 -770 5
-1097 -58 -499 -141 -789 -317 -1104 -296 -530 -812 -996 -1271 -1146 -52 -16
-96 -30 -99 -30 -13 0 -145 136 -220 227 -77 94 -83 104 -69 119 43 43 108
236 127 381 14 106 7 333 -15 451 -22 121 -59 268 -117 469 -43 152 -50 186
-45 233 11 107 111 461 201 716 64 179 77 206 149 319 46 70 61 85 113 113 70
37 197 72 264 72 104 0 199 -51 271 -145 49 -65 130 -231 156 -320 43 -151 47
-178 47 -365 0 -162 -3 -196 -24 -275 -25 -94 -84 -241 -134 -335 -44 -81
-176 -300 -203 -337 -32 -43 -30 -49 9 -21 53 38 127 119 178 196 61 94 159
286 193 381 106 296 98 637 -20 902 -105 233 -201 343 -338 389 -49 16 -221
14 -281 -4 -27 -9 -50 -14 -52 -12 -13 12 273 301 372 374 39 29 115 75 170
102 273 133 483 109 615 -69 120 -161 170 -349 170 -639 0 -147 -8 -233 -44
-460 -5 -34 11 -37 27 -5 61 119 97 554 63 748 -41 229 -144 422 -274 513 -93
65 -166 85 -292 79 -380 -17 -797 -353 -1157 -932 -248 -400 -337 -579 -426
-863 -79 -249 -117 -473 -117 -701 0 -85 -3 -151 -7 -148 -21 22 -165 677
-166 757 -1 92 116 491 223 761 68 170 234 493 324 628 414 622 902 920 1370
836z m3134 -4322 c6 -81 -31 -192 -162 -487 -85 -193 -128 -271 -241 -441
-184 -277 -475 -590 -800 -861 -162 -134 -396 -282 -618 -388 -153 -74 -439
-213 -747 -364 -227 -111 -337 -197 -382 -300 -17 -37 -37 -170 -38 -248 0
-16 -24 -37 -92 -81 -225 -145 -542 -321 -683 -380 -40 -16 -64 -20 -123 -16
-131 9 -157 -15 -240 -220 -128 -315 -229 -419 -522 -538 -67 -27 -127 -49
-134 -49 -10 0 -9 14 5 66 14 51 28 76 60 108 39 39 196 268 289 421 49 82
237 462 304 618 45 102 90 257 117 397 6 36 27 92 45 125 56 102 104 315 104
462 l0 73 43 27 c110 69 239 139 567 304 195 98 414 214 485 257 72 43 207
125 300 182 94 57 330 185 525 285 195 100 418 217 495 262 77 44 196 111 265
148 249 136 548 322 775 484 194 139 313 203 370 198 28 -2 30 -5 33 -44z
m-25238 -86 c174 -47 518 -171 1095 -394 303 -118 595 -224 1310 -480 567
-202 1035 -372 1425 -518 520 -195 1841 -714 2231 -876 64 -26 148 -56 185
-65 56 -14 97 -36 220 -119 166 -111 259 -160 854 -450 441 -215 507 -252 570
-321 55 -60 67 -90 81 -220 6 -60 18 -119 25 -131 8 -12 47 -44 87 -71 132
-90 458 -279 580 -338 31 -16 57 -31 57 -34 0 -6 -692 -181 -697 -177 -1 1 8
29 19 62 88 259 -176 534 -474 493 -117 -16 -230 -95 -278 -193 -45 -93 -48
-235 -8 -345 31 -82 71 -134 144 -186 80 -57 136 -75 242 -75 45 -1 82 -2 82
-4 0 -2 -10 -34 -21 -71 -12 -38 -29 -102 -38 -142 l-17 -74 -59 64 c-32 35
-88 95 -125 133 -77 82 -175 193 -320 365 -58 68 -147 173 -197 233 -51 59
-148 176 -214 260 -182 228 -196 241 -309 284 -52 20 -205 84 -340 144 -317
139 -531 230 -815 346 -590 243 -878 354 -930 360 -29 4 -60 -3 -117 -26 -101
-40 -309 -111 -325 -111 -11 0 -115 44 -558 235 -55 24 -176 78 -270 120 -93
42 -312 140 -485 217 -707 314 -866 388 -1310 609 -331 166 -467 241 -653 365
-478 318 -945 841 -965 1080 -4 45 -1 53 19 68 33 24 174 16 299 -17z m5161
-387 c71 -24 174 -85 314 -185 225 -161 530 -352 782 -489 67 -36 144 -79 172
-96 122 -72 393 -216 591 -315 268 -134 392 -203 695 -389 159 -97 355 -204
580 -317 187 -94 383 -196 436 -226 l97 -54 32 -102 c69 -220 307 -632 429
-744 43 -41 86 -44 102 -9 9 19 7 35 -10 80 -44 118 -98 456 -73 456 13 0 30
-23 78 -105 143 -243 394 -491 652 -643 81 -48 93 -65 135 -197 31 -95 51
-194 68 -330 13 -111 17 -703 4 -774 l-7 -44 -67 7 c-81 7 -280 55 -381 91
-111 40 -268 119 -325 162 -105 81 -179 195 -265 408 -34 82 -69 158 -78 168
-35 39 -73 50 -161 49 -60 -1 -96 3 -125 15 -129 54 -487 254 -674 375 -100
66 -98 62 -106 178 -15 208 -94 298 -396 447 -188 93 -553 270 -750 365 -370
178 -625 363 -965 703 -346 345 -529 601 -703 984 -134 293 -195 496 -162 536
15 19 9 19 81 -5z m16260 -1424 c6 -34 5 -54 -3 -63 -22 -27 -28 -10 -27 80 1
98 10 93 30 -17z m4648 -356 c58 -23 115 -44 125 -48 14 -6 -39 -33 -210 -105
-126 -53 -530 -225 -899 -382 -368 -158 -714 -305 -769 -328 l-98 -42 -92
-135 c-87 -127 -239 -349 -381 -555 -34 -49 -207 -301 -385 -560 -177 -258
-326 -474 -330 -478 -6 -7 -283 171 -352 226 -14 11 -17 34 -19 141 l-1 128
169 171 c93 95 225 237 293 317 69 80 135 156 146 170 92 106 273 323 388 467
142 177 151 184 256 218 51 17 229 92 460 195 104 46 259 113 360 155 299 124
556 228 720 291 107 41 254 98 325 125 72 28 139 54 150 59 30 13 31 13 144
-30z m-21598 -509 c120 -45 184 -70 599 -234 289 -114 789 -324 1040 -437 142
-64 247 -106 325 -131 32 -11 70 -30 83 -42 13 -12 78 -89 145 -172 102 -127
430 -519 447 -535 3 -3 30 -34 60 -70 126 -149 214 -244 371 -400 l117 -115
-5 -132 -6 -132 -189 -126 c-104 -69 -195 -125 -201 -125 -7 0 -268 385 -580
854 l-569 853 -161 76 c-89 41 -290 135 -447 207 -425 197 -825 383 -1098 510
-133 62 -241 114 -239 117 9 8 173 72 188 73 9 0 63 -17 120 -39z m5606 -378
c85 -149 298 -397 428 -499 28 -21 52 -41 55 -44 3 -3 21 -17 40 -30 19 -13
37 -27 40 -30 14 -17 201 -134 250 -156 74 -34 82 -35 106 -19 34 22 31 62 -6
102 -17 18 -52 68 -78 110 -69 114 -97 182 -37 91 97 -147 349 -406 483 -496
180 -120 252 -83 163 83 l-39 74 116 -117 c113 -114 197 -179 437 -339 148
-98 448 -240 632 -298 l51 -17 55 -106 c31 -59 65 -132 77 -162 38 -94 123
-392 151 -525 52 -250 52 -592 0 -815 -32 -138 -101 -331 -163 -455 -36 -72
-182 -300 -211 -330 -7 -7 -30 -35 -52 -63 -22 -28 -109 -120 -194 -203 -124
-123 -155 -149 -162 -136 -14 23 -135 79 -186 85 -48 5 -168 -13 -218 -34 -16
-7 -41 -22 -55 -34 -19 -17 -33 -20 -59 -16 -19 3 -40 11 -46 18 -7 7 -64 144
-128 303 -63 160 -130 322 -147 360 -35 76 -87 211 -100 260 -14 50 -47 159
-55 177 -5 12 -1 20 11 25 107 39 94 245 -40 653 -19 58 -57 186 -86 285 -60
213 -63 222 -102 303 -62 129 -76 134 -442 157 -131 8 -241 17 -244 19 -2 3 1
67 7 143 14 173 14 596 1 700 -21 157 -50 299 -75 365 -7 17 -5 17 21 3 58
-30 104 -12 104 40 0 38 -10 51 -72 90 -74 47 -179 225 -237 404 -44 132 -42
155 6 74z m12734 -166 c48 -21 117 -92 142 -147 12 -26 22 -75 25 -117 10
-150 -67 -287 -196 -350 -50 -25 -68 -28 -150 -28 l-93 0 -42 46 c-23 26 -62
60 -87 77 -37 24 -49 41 -69 92 -68 179 32 372 225 434 60 19 192 15 245 -7z
m-1394 -343 c163 -24 846 -198 920 -234 77 -38 115 -83 152 -180 77 -198 95
-419 66 -800 -9 -129 -15 -260 -11 -291 13 -133 76 -230 186 -288 97 -52 107
-94 70 -302 -28 -154 -125 -441 -200 -589 -62 -123 -152 -234 -229 -286 -106
-70 -310 -82 -488 -29 -75 22 -170 91 -224 161 -64 85 -163 330 -214 533 -50
196 -87 240 -226 271 -66 15 -128 8 -394 -45 -291 -57 -500 -79 -935 -96 -249
-10 -606 -7 -618 5 -1 2 11 57 27 122 34 137 22 122 220 273 280 215 699 665
843 907 30 49 37 55 88 69 82 23 254 92 344 138 96 50 191 135 256 232 61 90
73 114 136 268 60 148 69 161 121 176 1 1 51 -6 110 -15z m-13611 -181 c133
-69 212 -215 184 -341 -20 -88 -45 -139 -79 -157 -29 -15 -75 -57 -113 -104
-16 -19 -28 -21 -113 -21 -78 0 -104 4 -148 24 -141 62 -218 207 -201 376 9
84 36 141 91 190 65 56 110 70 223 67 83 -3 102 -7 156 -34z m-7141 -93 c490
-35 876 -78 1550 -171 673 -93 966 -137 1425 -215 642 -109 1038 -174 1205
-199 392 -57 790 -127 1070 -189 88 -19 173 -36 188 -38 33 -3 42 -19 282
-508 79 -162 162 -320 184 -350 22 -30 39 -56 38 -56 -1 -1 -76 18 -167 42
-194 52 -728 185 -850 211 -59 12 -127 18 -225 18 -137 0 -142 -1 -219 -34
-68 -29 -222 -126 -396 -249 l-45 -32 -141 34 c-77 19 -192 46 -255 60 -470
103 -629 136 -1049 220 -261 52 -565 114 -675 136 -212 44 -459 90 -900 170
-399 71 -460 88 -605 160 -270 136 -570 401 -772 685 -49 68 -148 257 -148
283 0 7 10 17 23 22 30 12 311 12 482 0z m8395 -246 c9 -11 37 -68 60 -129 56
-142 82 -194 138 -280 90 -134 173 -201 354 -282 274 -122 493 -166 905 -180
l191 -6 7 -44 c3 -24 15 -69 26 -101 29 -84 192 -685 250 -921 40 -162 47
-206 37 -212 -22 -14 -657 -10 -873 6 -345 25 -375 28 -675 86 -274 53 -338
58 -426 31 -107 -33 -134 -70 -183 -249 -74 -271 -156 -471 -227 -559 -132
-164 -424 -227 -650 -143 -109 41 -235 199 -321 403 -57 133 -132 363 -153
467 -11 53 -20 136 -20 184 0 99 9 114 96 158 64 33 107 79 141 152 26 57 28
68 28 200 0 77 -6 222 -14 322 -21 276 -4 465 60 658 38 116 85 180 159 217
57 29 736 205 880 228 41 6 82 13 90 15 36 8 103 -4 120 -21z m13685 -629
c183 -135 248 -178 355 -234 128 -67 288 -124 398 -142 l73 -12 -153 -57
c-165 -62 -253 -100 -421 -178 l-108 -51 -42 42 c-24 23 -68 57 -100 75 -64
37 -94 84 -117 180 -12 50 -4 229 16 400 6 48 0 50 99 -23z m2372 -177 c66
-24 115 -52 245 -139 150 -100 152 -88 -22 -125 -253 -55 -991 -266 -1745
-500 l-110 -34 -38 -75 c-87 -175 -213 -356 -339 -483 -88 -89 -157 -139 -243
-178 -112 -49 -145 -25 -161 115 -6 53 -3 69 34 162 108 279 162 485 162 624
l0 73 68 27 c37 15 121 49 187 77 176 75 448 172 570 203 28 8 86 23 130 35
223 60 783 197 935 229 25 5 95 9 157 10 92 1 123 -3 170 -21z m-14226 -95
c35 -30 71 -118 124 -309 31 -109 78 -273 105 -364 74 -246 103 -374 104 -463
1 -71 -1 -81 -22 -98 -29 -23 -90 -35 -105 -20 -6 6 -32 100 -59 208 -75 307
-174 673 -228 838 -56 173 -70 222 -63 228 9 10 129 -6 144 -20z m-3219 -249
c5 -38 9 -141 10 -229 3 -145 1 -164 -18 -205 -27 -56 -62 -92 -130 -131 -29
-16 -64 -43 -78 -59 -14 -17 -27 -30 -30 -30 -3 0 -88 37 -188 81 -183 82
-456 189 -479 189 -29 0 2 10 90 29 122 27 194 52 318 112 104 50 283 166 408
263 39 30 75 54 80 52 6 -1 13 -34 17 -72z m-2182 -148 c110 -18 262 -54 630
-146 553 -138 627 -162 1031 -323 l256 -102 6 -100 c4 -55 18 -147 32 -205 42
-171 42 -155 -3 -168 -68 -21 -143 -15 -232 18 -266 98 -1136 458 -1875 775
-137 59 -265 114 -283 122 -43 18 -35 27 60 76 131 67 216 79 378 53z m13752
-281 l-19 -70 -48 2 c-58 2 -92 27 -61 45 10 6 46 34 80 63 34 28 62 47 63 41
2 -6 -5 -42 -15 -81z m2035 -27 c49 -22 57 -41 103 -214 59 -224 131 -412 194
-508 21 -31 64 -79 95 -107 l56 -50 -225 6 c-124 3 -312 10 -418 16 -173 9
-196 9 -218 -6 -30 -19 -84 -101 -84 -127 0 -10 14 -47 31 -81 81 -159 379
-854 379 -883 0 -10 -209 1 -380 20 -85 9 -214 21 -285 27 -127 11 -132 11
-175 -11 -61 -31 -80 -49 -80 -77 0 -14 11 -82 25 -151 22 -114 73 -408 90
-521 8 -50 12 -51 -80 17 -118 87 -340 185 -523 231 -97 25 -516 97 -642 110
-52 6 -96 15 -98 21 -2 6 -36 59 -74 118 -96 146 -219 267 -320 316 -41 20
-85 36 -97 36 -11 0 -21 4 -21 10 0 10 94 246 325 820 81 201 167 415 192 475
37 92 93 274 117 376 8 38 68 46 162 22 60 -16 113 -18 394 -17 427 1 762 28
1013 80 410 85 399 83 462 76 22 -2 59 -13 82 -24z m-2231 -73 c8 -8 22 -18
30 -23 14 -8 12 -20 -11 -98 -46 -154 -78 -241 -137 -374 -11 -25 -26 -58 -33
-75 -7 -16 -22 -51 -34 -77 -11 -26 -21 -51 -21 -54 0 -9 -85 -225 -114 -289
-12 -27 -38 -88 -56 -135 -18 -47 -37 -89 -42 -95 -4 -5 -8 -15 -8 -22 0 -7
-8 -32 -19 -56 -10 -23 -33 -80 -51 -127 -18 -47 -37 -89 -42 -95 -4 -5 -8
-15 -8 -22 0 -7 -8 -32 -19 -56 -10 -23 -26 -61 -36 -84 -10 -24 -24 -43 -32
-43 -7 0 -68 -33 -136 -74 -249 -149 -312 -180 -402 -196 -93 -16 -187 -43
-276 -81 -41 -17 -104 -41 -141 -54 -66 -23 -66 -23 -135 -5 -72 19 -255 79
-383 126 -228 83 -400 235 -509 451 -34 67 -38 113 -21 236 52 366 139 606
313 861 71 104 59 100 217 74 225 -38 279 -42 535 -42 143 1 301 6 350 13 216
28 254 34 320 47 39 8 86 18 105 23 19 5 46 13 60 16 58 16 128 39 165 55 22
10 78 34 125 55 114 49 300 147 369 195 67 46 59 43 77 25z m4705 -333 c41 -6
119 -16 174 -22 356 -40 915 -127 1420 -221 176 -33 451 -82 610 -110 691
-119 1511 -300 1905 -420 232 -70 340 -124 340 -170 0 -48 -148 -123 -428
-215 -647 -214 -792 -224 -2692 -199 l-515 7 -27 47 c-45 81 -199 260 -349
406 -178 173 -217 194 -421 230 -141 25 -373 38 -560 31 -106 -5 -178 -3 -182
2 -3 5 20 26 52 47 94 62 223 166 288 232 84 85 188 223 231 310 32 65 38 71
57 63 12 -4 56 -13 97 -18z m-14411 -103 c80 -16 187 -39 238 -49 239 -50 597
-79 1012 -82 264 -1 315 1 380 17 80 19 97 20 146 10 28 -6 32 -11 43 -69 20
-100 109 -347 258 -716 l140 -345 -81 -11 c-156 -22 -445 -78 -1421 -278 -420
-86 -714 -158 -831 -203 -13 -5 -13 0 2 38 34 86 256 585 280 628 33 60 30 88
-14 152 l-38 54 -155 -3 c-85 -2 -275 -6 -424 -11 -148 -4 -271 -7 -272 -6 -2
1 26 30 60 66 35 35 78 90 95 121 48 83 126 298 172 470 22 83 48 163 57 178
14 25 49 46 103 64 36 11 115 3 250 -25z m-2630 -436 c71 -166 275 -386 496
-536 l94 -65 -317 -5 c-387 -6 -536 -27 -664 -93 -106 -54 -390 -346 -518
-533 l-61 -90 -138 1 c-75 1 -535 -2 -1022 -7 -939 -8 -1100 -4 -1385 36 -211
30 -320 58 -665 170 -281 92 -433 174 -416 226 19 58 258 143 731 262 404 101
1014 228 1505 312 129 22 390 69 580 104 631 117 1091 188 1525 236 61 6 135
17 165 24 30 7 57 13 60 14 3 0 16 -25 30 -56z m14790 11 c299 -5 356 -9 425
-26 83 -21 234 -28 311 -14 l41 7 31 -65 c62 -133 134 -216 187 -216 9 0 23
-16 31 -37 8 -21 26 -60 39 -88 13 -27 42 -99 65 -160 67 -177 150 -407 150
-414 0 -42 -735 -189 -1209 -241 -112 -13 -114 -13 -162 11 l-48 24 -57 140
c-207 511 -369 865 -446 977 -25 36 -23 47 15 86 l32 34 125 -6 c69 -4 280 -9
470 -12z m1900 -189 c197 -6 253 -11 420 -40 66 -11 118 -27 140 -40 49 -32
323 -318 376 -394 14 -19 13 -21 -3 -21 -62 -1 -1536 42 -1568 46 -39 4 -41 6
-64 67 -13 34 -45 104 -72 155 -33 63 -45 94 -37 97 92 28 127 43 212 88 l98
54 157 -4 c86 -1 239 -5 341 -8z m-13958 -336 l39 -41 -21 -31 c-49 -74 -245
-482 -309 -644 -18 -45 -38 -88 -44 -95 -7 -8 -46 -27 -87 -43 -77 -29 -340
-158 -538 -264 -61 -34 -124 -61 -139 -61 -92 0 -702 131 -777 167 l-34 16 43
121 c73 206 151 408 184 476 17 36 31 73 31 83 0 11 8 17 23 17 12 0 36 9 53
19 37 23 125 153 150 221 l17 47 41 -9 c62 -15 270 -3 351 20 62 17 108 20
415 22 283 2 499 9 554 18 5 1 27 -16 48 -39z m-1764 -290 l43 -12 -32 -33
c-18 -19 -46 -38 -63 -43 -100 -32 -640 -86 -1466 -147 l-85 -6 30 33 c77 88
214 224 252 250 23 16 53 29 67 29 13 0 78 9 143 21 94 16 188 22 466 29 192
4 351 10 354 13 3 3 60 -23 127 -58 66 -35 140 -69 164 -76z m10912 -163 c101
-48 236 -196 335 -365 7 -12 -7 -13 -86 -7 -156 11 -428 46 -524 67 -49 10
-98 19 -110 19 -11 1 -44 23 -72 50 l-53 48 113 66 c61 36 145 88 186 115 86
58 105 58 211 7z m4422 -60 c84 -40 270 -131 413 -201 226 -110 414 -199 1070
-508 522 -244 1320 -667 2045 -1082 593 -340 700 -406 700 -432 0 -24 -159
-44 -423 -53 -226 -9 -284 -8 -371 5 -137 20 -264 54 -421 110 -176 64 -534
186 -620 212 -38 12 -198 60 -355 108 -255 77 -680 193 -1118 306 -85 21 -202
47 -260 57 l-107 17 -60 115 c-33 63 -85 156 -116 205 -31 50 -90 146 -130
215 -40 69 -92 146 -116 171 -48 51 -153 109 -388 214 -82 37 -195 88 -250
112 -55 25 -188 81 -295 123 -153 61 -190 79 -170 84 14 3 79 15 145 27 131
23 367 72 455 94 30 7 81 19 112 25 32 6 60 16 63 21 4 5 15 9 25 9 22 0 34
31 25 63 -15 51 -16 57 -11 57 2 0 73 -33 158 -74z m-2347 -26 c88 -6 204 -15
259 -20 54 -6 142 -10 196 -10 l98 0 12 -32 c30 -76 73 -158 82 -158 6 0 38
-14 71 -31 60 -30 62 -30 141 -20 45 6 140 18 211 26 72 9 138 18 147 21 9 3
27 -2 40 -10 13 -8 81 -38 151 -66 124 -49 307 -128 432 -185 536 -246 554
-257 605 -330 35 -51 179 -299 176 -302 -1 -2 -289 80 -639 182 -350 102 -649
185 -664 185 -16 1 -317 -25 -670 -57 -354 -31 -645 -54 -649 -51 -3 4 -55
195 -115 425 -60 230 -112 427 -115 437 -6 17 -2 18 32 13 22 -4 111 -11 199
-17z m-13205 -418 c0 -4 -4 -22 -10 -41 -18 -64 -1 -74 250 -130 74 -17 207
-44 295 -61 88 -17 187 -37 220 -44 l60 -12 -41 -22 c-23 -11 -108 -48 -190
-81 -82 -32 -201 -83 -264 -111 -63 -29 -185 -83 -270 -121 -283 -127 -346
-172 -422 -304 -23 -38 -88 -148 -145 -244 -80 -133 -188 -332 -188 -348 0 0
-54 -11 -120 -23 -66 -11 -172 -34 -235 -51 -771 -202 -853 -225 -1250 -345
-401 -123 -549 -171 -742 -243 -187 -70 -304 -106 -438 -136 -158 -36 -717
-29 -851 11 l-51 15 22 24 c12 13 58 46 103 75 231 145 1140 659 1647 930 200
107 836 423 1085 540 132 62 309 145 394 186 84 41 156 74 158 74 4 0 146 69
873 422 100 49 110 53 110 40z m317 -685 c-156 -157 -193 -188 -402 -337 -126
-90 -272 -195 -322 -232 -51 -38 -93 -66 -93 -64 0 2 24 44 53 93 29 48 82
139 118 202 87 154 118 184 269 258 127 62 533 250 547 253 1 0 -76 -78 -170
-173z m14526 -51 c119 -49 292 -107 497 -166 41 -12 125 -40 186 -62 101 -35
111 -42 122 -71 22 -57 128 -157 392 -367 190 -151 516 -430 626 -535 7 -6
139 -128 295 -271 231 -212 612 -563 729 -673 14 -13 108 -98 210 -190 274
-247 423 -385 427 -397 7 -21 -117 -39 -257 -37 -112 2 -150 7 -225 28 -135
39 -217 75 -370 161 -77 42 -201 111 -275 152 -74 40 -177 99 -230 130 -414
242 -661 378 -1065 587 -188 97 -349 183 -620 330 -330 179 -365 199 -365 207
0 5 9 26 20 48 24 46 25 86 6 200 -20 118 -60 238 -97 291 -36 50 -270 283
-399 396 -47 42 -130 109 -185 151 -101 75 -118 92 -93 92 7 0 81 7 163 15 83
9 161 13 175 10 14 -3 48 1 75 9 88 24 116 20 258 -38z m-688 -97 c200 -156
251 -202 433 -384 161 -161 234 -248 220 -260 -7 -5 -1076 670 -1070 676 4 4
59 12 122 18 63 7 116 14 119 17 2 2 23 4 45 4 35 0 53 -10 131 -71z m-14390
-783 c-75 -230 -116 -428 -160 -771 -32 -247 -75 -529 -84 -542 -6 -9 -51 -34
-336 -183 -174 -92 -431 -235 -660 -370 -110 -64 -236 -136 -280 -160 -44 -24
-145 -80 -225 -125 -246 -139 -312 -169 -467 -215 -141 -41 -374 -44 -466 -7
l-30 12 124 116 c68 63 162 148 209 189 47 41 110 97 140 125 118 109 188 173
260 241 41 38 104 97 140 130 36 32 94 86 130 120 36 33 117 108 180 166 63
57 232 211 375 343 280 257 516 461 715 620 284 226 384 319 412 381 16 37 48
62 56 44 1 -4 -13 -55 -33 -114z"/>
<path d="M16970 28853 c0 -33 -22 -128 -31 -140 -29 -35 -170 -88 -327 -123
-180 -40 -326 -49 -942 -59 -1100 -19 -1200 -23 -1475 -56 -215 -25 -347 -56
-380 -88 -10 -10 31 -7 210 13 387 43 532 49 1440 60 893 10 959 14 1220 76
187 44 284 94 321 166 19 36 18 103 -2 133 -16 24 -34 33 -34 18z"/>
<path d="M12660 28150 c-110 -12 -488 -30 -615 -30 -244 0 -617 -41 -875 -96
-339 -72 -622 -189 -751 -311 -77 -73 -119 -142 -119 -198 0 -47 13 -44 44 10
27 45 134 159 171 183 11 6 40 25 65 40 43 27 134 72 145 72 3 0 24 8 48 19
93 41 235 81 465 132 23 5 61 13 85 18 58 13 106 20 217 32 219 23 330 30 615
39 165 5 352 14 415 20 63 6 216 15 340 20 124 5 234 11 245 14 11 2 48 10 83
17 34 6 62 16 62 20 0 11 -535 9 -640 -1z"/>
<path d="M15805 20434 c-172 -14 -387 -57 -550 -110 -203 -66 -505 -198 -522
-228 -4 -8 -67 -41 -140 -74 -210 -96 -393 -204 -393 -233 0 -21 50 -4 232 80
322 148 651 266 870 312 136 29 396 31 538 5 271 -50 652 -163 860 -256 177
-79 240 -102 255 -96 19 7 38 81 30 119 -11 52 -81 189 -117 229 -83 94 -310
178 -609 228 -115 18 -358 31 -454 24z"/>
<path d="M19389 19899 c-164 -24 -302 -120 -417 -291 -215 -318 -278 -697
-191 -1138 24 -123 68 -243 116 -318 18 -29 33 -56 33 -61 0 -5 19 -32 43 -61
91 -113 257 -211 433 -256 207 -52 359 -66 493 -43 76 13 103 29 48 29 -112 0
-488 67 -613 110 -87 29 -125 49 -69 35 174 -42 444 -70 585 -60 411 29 748
167 870 357 66 101 83 158 83 278 0 76 -5 116 -16 144 -10 21 -17 56 -17 78 0
21 -7 74 -15 116 -72 357 -321 739 -589 907 -149 93 -346 155 -547 174 -127
12 -150 12 -230 0z m311 -94 c266 -46 441 -135 614 -315 195 -202 345 -502
420 -839 30 -133 31 -139 11 -216 -59 -230 -193 -345 -510 -436 -177 -51 -271
-63 -485 -62 -317 2 -611 59 -735 144 -43 30 -66 70 -104 187 -62 190 -86 377
-78 607 9 230 42 366 136 554 106 211 232 335 381 377 62 17 248 17 350 -1z"/>
<path d="M19369 19645 c-124 -45 -267 -178 -336 -311 -99 -191 -137 -435 -98
-626 46 -226 224 -428 455 -517 229 -89 432 -74 609 43 183 122 271 316 271
596 0 224 -43 380 -147 538 -65 98 -133 156 -248 211 -134 65 -204 81 -346 80
-76 0 -138 -6 -160 -14z m483 -245 c74 -21 128 -89 128 -163 0 -49 -46 -134
-88 -162 -46 -32 -109 -33 -204 -4 -85 25 -152 83 -162 142 -14 78 48 159 134
172 19 3 49 10 65 14 42 12 84 13 127 1z m-421 -869 c41 -41 38 -74 -10 -122
-49 -50 -89 -52 -132 -10 -33 33 -36 58 -14 101 32 63 109 78 156 31z"/>
<path d="M16020 19863 c-256 -26 -475 -83 -720 -188 -368 -157 -778 -465
-1046 -785 -306 -367 -386 -711 -216 -935 132 -174 396 -283 828 -340 256 -34
764 -29 1074 11 98 13 382 69 445 89 62 19 -130 -70 -203 -95 -182 -60 -317
-82 -550 -87 -117 -3 -210 -9 -205 -14 4 -4 51 -18 103 -29 82 -19 115 -21
235 -17 238 10 424 56 620 154 159 79 262 157 331 249 16 21 41 52 56 68 41
46 114 187 127 245 6 29 21 137 32 239 60 527 -46 1014 -268 1237 -146 147
-395 224 -643 198z m220 -103 c163 -23 309 -100 393 -206 167 -211 259 -659
227 -1104 -13 -183 -38 -300 -82 -384 -82 -156 -283 -276 -544 -325 -530 -100
-1232 -98 -1667 3 -497 116 -647 378 -447 779 75 148 179 283 356 461 410 412
960 702 1454 765 47 6 96 13 110 15 51 7 137 5 200 -4z"/>
<path d="M15650 19620 c-142 -18 -268 -63 -293 -106 -4 -8 -12 -14 -18 -14
-20 0 -155 -96 -217 -154 -159 -149 -263 -347 -318 -606 -25 -118 -25 -301 0
-400 33 -133 117 -280 201 -353 106 -92 251 -167 395 -203 114 -29 362 -26
487 5 211 52 412 197 574 414 127 171 187 345 196 567 4 111 2 152 -15 233
-58 279 -251 486 -549 589 -80 27 -102 31 -233 33 -80 2 -174 0 -210 -5z m548
-311 c175 -87 221 -278 96 -403 -72 -71 -154 -79 -267 -23 -89 44 -151 96
-178 150 -17 32 -20 54 -17 108 5 87 21 109 117 160 97 51 159 53 249 8z
m-773 -1000 c30 -27 35 -37 35 -75 0 -93 -100 -149 -193 -110 -27 11 -42 26
-54 53 -49 118 113 219 212 132z"/>
<path d="M18950 17332 c0 -16 108 -72 207 -106 161 -55 208 -86 232 -149 27
-70 0 -176 -72 -282 -159 -237 -398 -454 -577 -525 -146 -58 -256 -69 -327
-32 -50 26 -71 28 -80 6 -11 -29 15 -62 73 -90 143 -70 349 -15 620 164 133
88 183 135 234 221 19 33 66 103 103 155 79 112 111 179 127 265 39 218 -111
334 -487 376 -29 3 -53 2 -53 -3z"/>
<path d="M17045 17144 c-150 -102 -279 -373 -231 -487 29 -71 142 -94 326 -67
36 5 124 12 196 16 l131 7 30 -55 c33 -58 79 -103 152 -150 56 -35 43 -36 -39
-2 -77 31 -143 75 -172 115 -25 33 -48 38 -48 10 0 -25 66 -112 113 -150 52
-40 169 -88 280 -112 50 -11 119 -27 152 -34 33 -8 75 -14 94 -15 43 0 111 19
134 38 18 16 23 67 7 77 -5 3 -10 13 -10 22 0 18 -68 102 -125 155 -63 58
-182 124 -280 157 -165 54 -303 57 -716 15 -37 -4 -83 -4 -103 0 -33 6 -36 10
-36 41 0 45 39 150 81 221 19 31 62 87 96 123 35 36 63 67 63 68 0 7 -34 33
-44 33 -7 0 -30 -12 -51 -26z"/>
<path d="M19586 15742 c-7 -12 53 -157 92 -222 57 -96 160 -312 190 -401 63
-181 84 -305 90 -527 l5 -204 -29 15 c-16 8 -50 33 -76 56 -55 49 -83 54 -74
14 10 -43 57 -104 111 -145 60 -45 176 -96 254 -110 74 -14 148 -46 182 -81
36 -36 47 -88 25 -122 -34 -52 -152 -101 -276 -115 -98 -11 -496 4 -670 25
-150 19 -296 21 -955 16 -248 -2 -600 2 -785 9 -349 13 -1039 8 -1381 -10
-289 -15 -541 -60 -652 -116 l-50 -26 7 29 c7 29 28 73 62 131 19 32 19 33 0
47 -16 12 -23 12 -45 1 -72 -38 -111 -119 -111 -231 0 -95 28 -166 81 -208 18
-14 34 -25 35 -24 2 2 -2 29 -21 139 -4 25 -2 27 43 33 26 4 81 13 122 20 110
20 262 43 365 54 283 32 1244 44 1682 21 244 -12 639 -10 1178 6 154 5 236 2
355 -11 230 -25 353 -34 471 -34 l105 -1 17 -70 c16 -69 16 -72 -3 -109 -45
-90 -126 -129 -389 -191 -195 -46 -251 -62 -328 -96 -39 -18 -65 -42 -58 -55
10 -15 110 -10 219 10 55 11 142 27 191 36 227 40 303 68 386 143 53 48 99
130 99 177 0 18 -7 54 -15 81 -21 70 -20 72 33 79 134 16 262 62 339 121 70
53 94 163 54 249 -47 105 -216 189 -386 195 -6 0 -10 83 -10 228 -1 195 -4
241 -23 328 -52 239 -134 427 -297 674 -59 91 -113 168 -119 172 -15 10 -34
10 -40 0z"/>
<path d="M8452 21400 c-180 -25 -318 -99 -396 -213 -37 -54 -82 -165 -70 -176
3 -3 28 19 56 49 145 160 152 166 233 199 100 42 185 55 315 48 159 -9 292
-46 448 -127 91 -47 87 -39 52 -111 -37 -77 -103 -146 -184 -194 -275 -161
-495 -432 -609 -750 -23 -65 -34 -104 -68 -255 -21 -91 -16 -340 9 -432 47
-174 175 -348 353 -482 55 -41 79 -54 79 -42 0 3 -6 11 -13 18 -103 109 -266
362 -301 470 -37 111 -49 322 -26 440 49 250 143 466 273 631 27 35 31 37 46
22 27 -23 51 -19 172 31 156 64 243 84 389 91 183 9 283 -13 415 -90 107 -63
203 -199 380 -537 65 -124 130 -243 145 -265 102 -152 130 -236 130 -392 0
-191 -60 -389 -155 -518 -144 -193 -165 -505 -50 -735 66 -131 279 -279 407
-283 45 -2 50 -6 172 -122 69 -66 153 -155 187 -197 34 -43 63 -78 66 -78 2 0
1 21 -3 48 -13 91 -71 183 -211 332 -222 238 -235 260 -241 410 -5 129 11 205
67 318 23 44 41 84 41 88 0 4 35 77 78 162 l77 154 11 -68 c26 -156 34 -216
34 -246 0 -47 16 -23 36 52 29 113 3 350 -71 634 -94 367 -259 701 -509 1031
-305 403 -873 865 -1249 1015 -153 61 -370 90 -515 70z m657 -559 c10 -6 -4
-13 -45 -21 -32 -7 -62 -14 -66 -17 -5 -2 -8 -2 -8 1 0 8 73 45 90 45 8 1 21
-3 29 -8z"/>
<path d="M7749 20612 c-101 -157 -166 -360 -195 -606 -15 -123 -15 -161 -5
-295 20 -241 86 -533 171 -745 68 -172 190 -387 284 -499 56 -68 146 -157 158
-157 4 0 -5 19 -21 43 -50 73 -162 268 -221 382 -119 234 -183 420 -244 716
-20 94 -36 275 -36 400 0 235 23 359 134 718 14 47 26 88 26 93 0 20 -18 3
-51 -50z"/>
<path d="M4280 15436 c-27 -7 -46 -18 -48 -28 -6 -30 179 -378 201 -378 5 0
31 10 58 22 38 16 49 25 46 38 -5 21 -171 307 -195 336 -16 19 -21 20 -62 10z"/>
<path d="M22195 13623 c-78 -20 -145 -155 -133 -268 15 -132 142 -238 246
-207 40 13 125 89 148 134 23 45 21 155 -3 203 -50 95 -171 160 -258 138z
m129 -67 c28 -4 73 -62 96 -124 11 -29 20 -57 20 -63 0 -5 -19 -30 -42 -56
-71 -77 -142 -94 -198 -47 -39 33 -56 67 -65 127 -9 59 14 127 53 158 27 21
27 21 136 5z"/>
<path d="M21180 12895 c-17 -20 -9 -83 26 -213 28 -105 47 -129 79 -102 22 18
18 74 -10 185 -34 134 -61 171 -95 130z"/>
<path d="M21014 12855 c-8 -31 0 -81 29 -199 25 -100 47 -128 82 -102 19 14
19 16 -3 133 -34 183 -38 193 -72 193 -23 0 -31 -5 -36 -25z"/>
<path d="M22762 12002 c-16 -11 -29 -56 -37 -136 -8 -75 -9 -76 -106 -55 -74
16 -85 1 -88 -121 -1 -84 1 -93 23 -115 13 -13 41 -27 62 -30 69 -12 66 -7 57
-97 -10 -106 -8 -145 9 -165 19 -23 65 -40 130 -48 71 -9 75 -3 84 137 l7 106
31 -9 c17 -5 50 -9 73 -9 60 0 71 22 65 123 -5 87 -4 85 -88 107 -23 6 -44 17
-47 24 -3 8 -7 67 -8 130 -1 70 -7 120 -13 125 -15 11 -106 41 -125 41 -9 0
-22 -4 -29 -8z"/>
<path d="M5068 12459 c-21 -11 -38 -24 -38 -28 0 -5 35 -56 78 -113 43 -57 93
-124 111 -150 17 -27 36 -48 42 -48 21 0 79 46 79 63 0 10 -14 39 -32 65 -45
67 -179 227 -192 229 -6 1 -28 -7 -48 -18z"/>
<path d="M9144 13094 c-99 -52 -144 -120 -144 -217 0 -83 23 -129 92 -187 55
-46 64 -50 113 -50 109 0 205 107 205 229 0 196 -123 300 -266 225z m143 -52
c27 -21 53 -91 53 -141 0 -44 -29 -109 -61 -137 -55 -49 -120 -37 -191 33 -26
26 -48 56 -48 68 0 36 39 128 66 156 15 15 38 30 53 32 62 10 107 6 128 -11z"/>
<path d="M10242 12388 c-14 -17 -58 -168 -67 -230 -4 -25 -4 -55 -1 -66 7 -22
37 -34 56 -22 18 11 71 229 68 280 -2 37 -7 46 -24 48 -11 2 -26 -3 -32 -10z"/>
<path d="M10396 12358 c-13 -20 -43 -151 -61 -259 -7 -46 13 -67 49 -51 27 12
25 6 62 164 25 111 26 119 10 143 -20 31 -41 32 -60 3z"/>
<path d="M8605 11484 c-64 -24 -59 -8 -63 -195 l-2 -96 -60 -12 c-41 -8 -63
-18 -70 -32 -6 -10 -9 -56 -8 -101 3 -80 4 -83 31 -92 18 -7 45 -6 80 1 28 6
54 9 57 6 3 -3 8 -52 11 -109 7 -136 10 -139 109 -120 58 11 79 19 98 41 22
27 23 32 17 129 -4 55 -8 105 -9 109 0 5 24 15 54 23 86 23 94 35 91 150 -1
57 -7 104 -13 112 -12 14 -49 13 -144 -4 l-31 -6 -6 77 c-9 103 -22 129 -67
132 -19 1 -53 -5 -75 -13z"/>
<path d="M25169 10618 c-58 -57 -118 -122 -133 -145 -27 -40 -27 -42 -11 -73
36 -70 70 -55 226 97 l130 127 -48 48 c-26 26 -50 48 -53 48 -3 0 -53 -46
-111 -102z"/>
<path d="M6147 10172 c-26 -26 -47 -53 -47 -59 0 -13 214 -216 257 -245 15
-10 36 -18 45 -18 20 0 58 50 58 77 0 23 -94 131 -196 226 l-71 66 -46 -47z"/>
<path d="M24480 8930 c-8 -5 -80 -37 -160 -71 -80 -34 -151 -67 -158 -73 -10
-10 -9 -23 9 -69 12 -31 26 -57 32 -57 5 0 71 30 146 66 75 36 153 73 174 81
43 17 43 19 20 84 -18 49 -33 59 -63 39z"/>
<path d="M6945 8428 c-16 -44 -35 -101 -35 -105 0 -7 333 -164 352 -166 25 -3
72 107 53 123 -7 6 -75 37 -151 69 -77 32 -156 66 -177 75 -29 13 -38 14 -42
4z"/>
<path d="M23390 7901 c-74 -16 -147 -34 -162 -39 l-27 -11 15 -46 c13 -37 19
-44 37 -41 12 3 40 8 62 11 89 13 211 48 229 65 16 16 17 22 6 54 -6 20 -15
36 -18 35 -4 0 -68 -13 -142 -28z"/>
<path d="M27102 15888 c-63 -96 -173 -291 -170 -300 2 -5 27 -19 56 -33 l52
-24 38 57 c48 71 158 278 166 313 5 25 2 28 -39 38 -24 6 -48 11 -53 11 -5 0
-28 -28 -50 -62z"/>
<path d="M26337 12967 c-8 -12 -41 -51 -72 -87 -61 -67 -135 -175 -135 -195 0
-6 19 -24 41 -39 39 -25 42 -26 54 -9 7 10 58 79 114 153 55 74 101 140 101
146 0 5 -20 20 -44 31 l-44 22 -15 -22z"/>
<path d="M9532 8452 c-14 -9 106 -130 213 -214 584 -460 718 -607 1116 -1233
276 -432 483 -852 668 -1349 101 -271 159 -449 321 -996 73 -245 137 -449 142
-455 6 -6 7 -1 4 15 -3 14 -13 84 -21 155 -34 271 -171 798 -310 1190 -161
452 -368 904 -570 1245 -88 147 -306 484 -396 611 -203 286 -444 532 -723 737
-65 48 -174 129 -243 180 -106 78 -173 122 -185 122 -2 0 -9 -4 -16 -8z"/>
<path d="M17125 6464 c-303 -45 -352 -57 -540 -132 -82 -32 -172 -64 -200 -70
-76 -16 -134 -21 -141 -11 -9 14 -24 10 -24 -6 0 -29 30 -74 58 -89 l27 -14
-45 -21 c-61 -28 -153 -28 -199 0 -50 30 -62 12 -31 -48 14 -27 26 -51 28 -54
1 -4 -6 -9 -18 -12 -19 -5 -20 -13 -20 -122 0 -99 -3 -120 -19 -141 -42 -54
-34 -174 19 -257 l29 -45 -52 -13 c-147 -35 -212 -206 -143 -382 65 -169 124
-245 227 -292 67 -30 160 -49 212 -42 31 4 37 2 37 -13 0 -25 15 -33 40 -20
24 13 24 16 4 -49 -32 -109 1 -188 44 -104 l20 38 0 -78 c0 -80 19 -131 45
-121 8 3 20 -10 30 -30 20 -44 77 -108 139 -157 l48 -37 -108 0 c-163 1 -355
37 -593 113 -124 40 -344 142 -424 197 -27 19 -61 38 -75 41 -14 4 -49 25 -78
47 -30 23 -61 40 -70 38 -9 -2 -41 -35 -71 -75 l-55 -71 -22 87 c-26 104 -88
252 -122 292 -54 65 -132 8 -132 -96 0 -19 -3 -35 -6 -35 -3 0 -27 14 -54 32
-41 27 -58 49 -115 152 -125 224 -163 266 -238 266 -67 0 -86 -41 -57 -125 11
-32 20 -60 20 -61 0 -2 -29 16 -65 41 -68 46 -145 75 -202 75 -39 0 -97 -22
-109 -42 -5 -8 -27 -18 -48 -23 -23 -6 -47 -21 -58 -36 -27 -35 -10 -70 51
-102 103 -57 382 -318 412 -386 30 -67 102 -170 156 -223 45 -44 226 -146 313
-176 l31 -11 -28 -38 c-15 -21 -31 -39 -35 -41 -22 -10 4 -45 127 -172 74 -76
135 -144 135 -150 0 -5 9 -10 19 -10 13 0 23 11 31 35 6 19 13 35 16 35 2 0
30 -20 61 -44 243 -184 651 -379 903 -432 47 -10 86 -18 87 -19 5 -3 43 -258
52 -355 6 -58 18 -174 27 -258 8 -84 33 -286 54 -448 21 -163 36 -302 34 -309
-8 -19 42 -71 84 -88 98 -39 266 -58 692 -77 491 -22 867 -9 1102 36 46 9 98
18 117 19 21 1 38 9 44 21 17 30 27 609 17 1014 -5 201 -11 374 -14 385 -3 11
-7 41 -10 68 l-6 47 33 0 c65 0 324 52 424 85 154 51 320 140 401 214 l42 39
22 -32 c25 -37 47 -56 64 -56 12 0 132 175 147 213 3 9 12 16 19 15 28 -6 16
33 -24 83 -24 30 -70 90 -102 134 -33 44 -85 109 -116 145 l-57 65 19 110 c28
166 32 177 51 189 24 15 37 -6 37 -60 0 -62 12 -134 21 -134 5 0 9 7 9 15 0 8
3 15 8 15 4 0 27 27 51 60 l44 61 25 -48 c13 -26 33 -63 44 -80 30 -50 18 -89
-33 -104 -77 -23 -146 -104 -137 -161 3 -21 6 -19 26 19 27 51 59 77 123 98
53 18 89 59 89 101 0 12 -22 52 -50 90 -46 63 -50 73 -50 124 0 66 19 102 43
81 9 -7 21 -29 28 -49 7 -20 29 -77 50 -125 22 -49 39 -104 39 -124 0 -72 -50
-144 -183 -261 -36 -33 -48 -62 -26 -62 6 0 50 33 98 74 65 55 95 89 119 134
18 33 32 67 32 77 0 9 13 35 29 58 15 23 36 56 45 74 9 18 48 63 87 100 106
102 130 151 91 186 -10 10 -32 17 -48 17 -16 0 -38 7 -48 15 -52 39 -144 3
-208 -81 l-42 -56 -13 26 c-12 22 -11 35 2 87 12 47 13 64 4 75 -17 20 -48 17
-85 -8 -49 -33 -72 -84 -83 -175 -7 -65 -15 -90 -42 -132 l-34 -52 -3 69 c-3
81 -23 109 -67 98 -35 -9 -62 -57 -69 -124 -8 -68 -26 -164 -33 -176 -3 -4
-21 8 -40 29 l-34 38 -64 -70 c-76 -84 -102 -96 -268 -125 -146 -26 -438 -31
-580 -9 -83 12 -88 15 -83 35 3 11 6 27 6 34 0 6 9 12 20 12 27 0 70 43 70 69
0 14 11 25 35 35 41 18 59 54 45 91 -5 14 -16 28 -23 31 -9 3 -13 30 -13 92
-1 64 -6 101 -22 140 l-21 54 34 30 c19 16 47 55 62 86 25 51 28 70 32 179 3
109 5 122 22 126 16 4 19 15 19 66 0 72 -14 108 -46 114 -13 2 -67 2 -120 -1
l-95 -5 8 54 c4 30 7 75 6 100 -4 123 -86 347 -149 414 -27 27 -29 35 -30 110
0 104 -29 164 -121 260 -90 93 -145 136 -221 174 -111 56 -195 72 -397 76 -99
2 -193 1 -210 -1z m444 -65 c109 -28 192 -79 305 -188 125 -122 150 -167 152
-276 2 -80 2 -80 46 -126 42 -45 91 -144 123 -251 l14 -47 -42 43 c-66 69
-161 85 -252 43 -55 -26 -142 -113 -169 -171 l-17 -35 -47 33 c-159 113 -369
164 -506 124 -61 -18 -131 -92 -144 -153 -6 -26 -9 -53 -7 -59 2 -6 6 -23 9
-38 l6 -28 -58 0 c-77 0 -102 -18 -102 -73 0 -58 17 -158 30 -171 5 -5 29 -12
52 -15 41 -6 42 -7 65 -69 12 -35 29 -76 36 -92 14 -27 13 -29 -57 -102 -74
-77 -133 -175 -156 -261 -24 -88 7 -228 75 -341 18 -31 32 -56 29 -56 -13 0
-182 73 -218 94 -106 62 -188 161 -201 243 -4 24 -10 45 -14 47 -11 7 -28 -7
-34 -29 -3 -11 -5 23 -6 75 0 52 0 101 0 108 -1 21 -29 13 -50 -15 l-21 -28 6
30 c4 17 15 50 25 74 11 24 19 50 19 58 0 27 -31 26 -63 -3 -17 -16 -27 -22
-21 -14 6 8 16 33 22 55 6 22 35 81 63 130 42 72 53 101 57 146 3 41 0 61 -11
75 -89 109 -128 150 -171 183 -69 52 -143 96 -188 111 -45 14 -100 75 -116
129 -13 42 -15 126 -3 155 6 15 14 5 40 -48 47 -95 126 -156 204 -156 32 0 32
0 -18 29 -94 54 -147 129 -180 256 -24 94 -17 189 10 144 4 -5 12 -8 18 -6 7
2 32 -7 56 -20 52 -27 101 -29 221 -8 166 29 291 13 439 -59 41 -20 77 -33 80
-31 8 9 -42 56 -87 82 -110 65 -277 82 -472 48 -118 -21 -148 -15 -193 34 -65
73 -65 76 14 78 56 2 81 8 127 33 54 29 61 30 122 22 63 -9 210 2 355 28 124
21 287 5 388 -39 57 -25 160 -72 172 -79 14 -8 -16 29 -40 50 -31 27 -129 77
-181 93 -102 30 -221 38 -334 20 -276 -42 -347 -43 -431 -6 l-44 20 36 0 c48
1 150 33 259 81 168 74 363 121 585 140 124 11 306 1 394 -21z m541 -864 c44
-40 71 -101 77 -174 3 -39 4 -72 2 -72 -2 -1 -71 -4 -154 -8 l-150 -6 -13 -30
c-29 -67 -37 -72 -98 -61 -28 6 -34 12 -40 42 -5 26 -14 38 -33 46 -16 6 -141
8 -334 6 l-307 -3 0 54 c0 93 47 151 143 177 70 19 110 17 201 -6 96 -24 186
-67 265 -125 59 -43 91 -56 91 -35 0 13 58 109 84 139 12 13 39 37 61 53 37
28 45 29 112 26 54 -2 77 -8 93 -23z m-1935 -169 c74 -35 172 -111 252 -196
l70 -75 -12 -48 c-7 -26 -27 -68 -44 -92 -18 -25 -48 -79 -67 -120 l-35 -75
-67 0 c-125 0 -246 63 -306 159 -26 42 -82 181 -91 228 -17 85 37 198 110 229
49 21 133 17 190 -10z m1769 -273 c17 -101 93 -237 161 -289 34 -25 49 -29
119 -33 73 -3 78 -4 55 -17 -36 -20 -104 -17 -150 7 -95 48 -198 204 -207 314
-5 63 12 76 22 18z m-3354 -22 c25 -18 33 -31 147 -229 76 -130 84 -140 173
-193 l70 -41 0 -72 c0 -46 5 -79 14 -91 12 -17 15 -8 21 78 6 78 4 104 -9 137
-28 70 -13 144 28 138 29 -4 92 -136 135 -281 l34 -116 -93 -143 c-51 -79 -98
-151 -104 -160 -13 -21 -21 -19 -143 37 -149 70 -242 153 -323 290 -28 48 -30
114 -6 195 9 30 21 87 26 125 15 107 20 125 36 125 30 0 72 -30 85 -62 16 -37
18 -162 5 -253 -8 -58 -7 -63 19 -93 26 -31 247 -146 268 -139 16 5 -43 67
-84 87 -21 11 -63 29 -94 41 -83 31 -91 48 -71 156 14 78 14 96 1 156 -22 105
-81 168 -144 152 -14 -4 -28 -6 -30 -6 -7 1 -51 136 -51 158 0 37 40 39 90 4z
m2515 -48 c34 -147 98 -244 193 -290 53 -26 65 -28 171 -27 97 1 111 -1 96
-12 -27 -20 -79 -27 -151 -21 -179 14 -323 166 -332 350 -2 42 -2 77 1 77 2 0
13 -35 22 -77z m774 -25 c21 -69 75 -148 149 -221 80 -77 137 -106 204 -107
42 0 49 -3 63 -30 21 -40 32 -134 24 -200 -8 -56 1 -80 27 -80 17 0 29 -19 18
-30 -5 -5 -74 -16 -154 -25 -80 -9 -165 -20 -190 -25 -25 -6 -185 -15 -355
-21 l-310 -12 -51 26 c-45 23 -51 29 -47 52 11 56 -78 7 -93 -53 -4 -12 -1
-29 6 -37 11 -14 16 -14 37 1 22 14 27 14 41 1 10 -8 38 -22 64 -32 43 -16 70
-16 360 -6 191 6 338 16 378 25 36 7 90 17 120 20 30 4 67 9 83 12 20 4 27 2
27 -10 0 -9 -12 -18 -27 -21 -46 -10 -58 -21 -55 -48 4 -35 -59 -131 -107
-163 -127 -83 -364 -114 -615 -79 -127 18 -172 28 -246 53 -177 61 -251 135
-310 308 -49 140 -3 283 136 426 l46 48 54 -49 c75 -69 146 -95 254 -95 72 0
94 4 147 28 111 51 182 152 206 293 14 84 12 82 93 92 6 0 16 -18 23 -41z
m-3529 -18 c51 -26 74 -43 135 -99 41 -38 42 -41 37 -89 l-4 -49 -92 91 c-97
98 -152 139 -213 162 l-38 15 65 -4 c42 -3 82 -13 110 -27z m-135 -38 c39 -19
94 -60 155 -118 52 -49 106 -96 118 -104 24 -15 24 -15 8 -77 -9 -33 -16 -70
-16 -82 0 -12 -1 -21 -3 -21 -1 0 -71 66 -153 148 -83 81 -170 158 -194 172
-98 58 -109 81 -47 99 52 15 69 13 132 -17z m5481 -254 c-4 -13 -9 -38 -13
-56 -5 -27 -9 -31 -25 -26 -12 3 -27 -1 -39 -12 -25 -22 -25 -4 1 46 29 57 90
95 76 48z m247 -34 c3 -3 -15 -20 -41 -38 -29 -19 -64 -57 -92 -99 -39 -59
-46 -65 -57 -51 -14 19 -4 38 55 113 49 61 113 97 135 75z m105 -55 c1 -9 -30
-48 -72 -89 -50 -49 -88 -97 -112 -143 -20 -37 -37 -67 -39 -65 -2 2 -13 24
-23 49 l-20 46 50 74 c50 75 69 94 123 130 35 23 88 22 93 -2z m-4615 -129
c21 -12 40 -27 43 -34 3 -7 -25 -75 -61 -152 -73 -152 -128 -286 -182 -439
-20 -55 -38 -103 -42 -107 -4 -4 -58 44 -121 107 l-114 115 22 27 c12 16 66
93 119 173 54 80 133 194 176 253 77 104 80 107 101 92 11 -8 38 -24 59 -35z
m4044 -530 c55 -75 108 -141 117 -149 14 -12 12 -17 -18 -55 -18 -22 -48 -67
-66 -98 -17 -32 -35 -58 -39 -58 -10 0 -69 113 -150 287 -39 83 -90 187 -113
230 l-43 78 30 27 30 28 75 -78 c42 -42 121 -138 177 -212z m-2485 93 c11 3
42 -9 75 -29 63 -38 133 -66 227 -91 33 -9 62 -17 64 -18 1 -1 -20 -40 -46
-86 -27 -46 -59 -108 -72 -136 -13 -29 -27 -53 -31 -53 -5 0 -51 36 -102 81
-101 86 -118 112 -181 281 l-25 66 36 -10 c19 -5 44 -7 55 -5z m877 -228 c-3
-41 -8 -77 -10 -78 -10 -8 -122 -47 -135 -47 -13 0 -94 147 -94 170 0 5 26 10
58 11 31 1 82 4 112 9 30 4 60 8 65 9 7 1 8 -25 4 -74z m-477 -235 c6 -52 7
-165 1 -295 l-8 -210 -63 105 c-60 99 -256 489 -250 496 2 1 30 -20 63 -47 36
-30 68 -48 80 -47 14 2 35 31 69 98 l49 95 25 -55 c14 -32 29 -90 34 -140z
m277 105 c17 -29 26 -35 56 -35 19 0 57 9 85 19 l50 19 0 -21 c0 -67 -87 -483
-110 -526 -4 -8 -12 14 -20 55 -14 75 -90 349 -112 403 -12 30 -11 38 7 77 11
24 21 44 22 44 0 0 10 -16 22 -35z m14 -1343 c33 -29 15 -82 -35 -101 -37 -14
-68 10 -68 53 0 67 52 91 103 48z m37 -320 c27 -22 29 -65 5 -92 -37 -41 -95
-12 -95 46 0 58 46 82 90 46z"/>
<path d="M17948 4639 c-26 -10 -42 -34 -33 -49 6 -10 77 10 87 24 7 10 -9 37
-21 35 -3 0 -18 -5 -33 -10z"/>
<path d="M17740 4631 c-17 -12 -19 -10 43 -39 46 -21 67 -22 67 -2 0 25 -85
57 -110 41z"/>
</g>
</svg>
